<svg width="382" height="252" viewBox="0 0 382 252" fill="none" xmlns="http://www.w3.org/2000/svg">
<path fill-rule="evenodd" clip-rule="evenodd" d="M155.851 77H132C130.895 77 130 77.8954 130 79V101.525L155.851 77ZM251.5 101.525V79C251.5 77.8954 250.605 77 249.5 77H225.649L251.5 101.525ZM210.138 77H198.505V175.1H208.138C209.243 175.1 210.138 174.205 210.138 173.1V77ZM190.104 99.0726L185.801 93.1413L187.445 83.5444H192.763L194.406 93.1413L190.104 99.0726ZM182.995 77H171.362V173.1C171.362 174.205 172.257 175.1 173.362 175.1H182.995V77Z" fill="#44275E"/>
</svg>
